<svg xmlns="http://www.w3.org/2000/svg" width="400" height="300" viewBox="0 0 400 300"><rect width="100%" height="100%" fill="#0ea5e9"/><path fill="#ffffff" d="M84.965 159.975h5.17q1.42 0 2.39-.34t1.55-.91.83-1.33q.26-.76.26-1.62 0-.89-.28-1.6-.29-.72-.9-1.22t-1.57-.77q-.95-.27-2.3-.27h-5.15zm4.35-19.53h-4.35v7.94h4.06q2.63 0 3.96-.95 1.34-.95 1.34-3.02 0-2.15-1.21-3.06-1.22-.91-3.8-.91m-9.46-3.95h9.46q2.7 0 4.62.51 1.91.51 3.14 1.46t1.8 2.3.57 3.04q0 .97-.29 1.85-.28.89-.88 1.66t-1.52 1.39q-.92.63-2.2 1.07 5.66 1.27 5.66 6.12 0 1.74-.66 3.23-.67 1.48-1.94 2.55t-3.13 1.68q-1.87.61-4.26.61h-10.37zm32.9 7.67q2.17 0 3.95.71 1.77.7 3.04 1.99 1.26 1.29 1.94 3.15.69 1.87.69 4.16 0 2.32-.69 4.19-.68 1.86-1.94 3.17-1.27 1.31-3.04 2.01-1.78.7-3.95.7-2.18 0-3.97-.7-1.78-.7-3.05-2.01-1.26-1.31-1.95-3.17-.7-1.87-.7-4.19 0-2.29.7-4.16.69-1.86 1.95-3.15 1.27-1.29 3.05-1.99 1.79-.71 3.97-.71m0 16.48q2.44 0 3.6-1.64 1.17-1.63 1.17-4.79 0-3.15-1.17-4.8-1.16-1.66-3.6-1.66-2.47 0-3.65 1.67-1.19 1.66-1.19 4.79 0 3.14 1.19 4.78 1.18 1.65 3.65 1.65m19.71 3.62q-2.55 0-3.91-1.43t-1.36-3.96v-10.89h-1.99q-.38 0-.65-.25-.26-.24-.26-.74v-1.86l3.13-.51.99-5.32q.1-.38.36-.59.27-.21.69-.21h2.43v6.14h5.2v3.34h-5.2v10.56q0 .92.44 1.43.45.51 1.23.51.44 0 .73-.1.3-.11.51-.22.22-.11.39-.22.17-.1.35-.1.2 0 .34.1.13.11.28.31l1.41 2.28q-1.03.86-2.36 1.3-1.33.43-2.75.43m14.13 0q-2.54 0-3.9-1.43t-1.36-3.96v-10.89h-1.99q-.38 0-.65-.25-.27-.24-.27-.74v-1.86l3.14-.51.99-5.32q.09-.38.36-.59.26-.21.68-.21h2.43v6.14h5.21v3.34h-5.21v10.56q0 .92.45 1.43t1.23.51q.43 0 .73-.1.29-.11.51-.22t.39-.22q.17-.1.34-.1.21 0 .34.1.14.11.29.31l1.4 2.28q-1.02.86-2.35 1.3-1.33.43-2.76.43m7.7-28.53h4.69v28.23h-4.69zm13.09 16.24h8.85q0-.91-.25-1.72-.26-.81-.77-1.41-.52-.61-1.3-.96-.79-.35-1.84-.35-2.03 0-3.2 1.15-1.17 1.16-1.49 3.29m11.97 2.83h-12.07q.12 1.5.54 2.6.41 1.09 1.1 1.8.68.71 1.62 1.06.94.36 2.08.36t1.97-.27 1.44-.59q.62-.32 1.09-.59.46-.26.9-.26.59 0 .87.43l1.35 1.71q-.78.92-1.75 1.53-.96.62-2.02.99-1.05.37-2.15.52-1.09.15-2.11.15-2.04 0-3.79-.67-1.74-.67-3.04-1.99-1.29-1.33-2.03-3.27-.74-1.95-.74-4.51 0-2 .65-3.76.64-1.75 1.85-3.06 1.21-1.3 2.94-2.06 1.74-.76 3.93-.76 1.84 0 3.4.59t2.68 1.72 1.75 2.77q.64 1.65.64 3.76 0 1.06-.23 1.43-.22.37-.87.37m16.85 3.38v-8.74q-.8-.96-1.74-1.36t-2.02-.4q-1.06 0-1.92.4-.85.4-1.46 1.2-.61.81-.93 2.05-.33 1.25-.33 2.94 0 1.71.28 2.9t.79 1.94 1.25 1.08 1.66.33q1.46 0 2.48-.61 1.03-.61 1.94-1.73m0-22.45h4.7v28.23h-2.87q-.93 0-1.18-.85l-.4-1.89q-1.18 1.35-2.71 2.19-1.53.83-3.56.83-1.6 0-2.93-.66t-2.29-1.93q-.96-1.26-1.48-3.12-.52-1.87-.52-4.26 0-2.17.59-4.03t1.69-3.23 2.64-2.14 3.46-.77q1.63 0 2.79.52 1.16.51 2.07 1.39zm51.85.76h4.01l-8.53 27.47h-4.62l-6-18.77q-.25-.69-.46-1.67-.11.47-.22.89-.12.42-.25.78l-6.06 18.77h-4.64l-8.51-27.47h4.28q.66 0 1.11.31.44.31.6.85l4.67 16.43q.15.61.29 1.32.15.71.3 1.49.15-.8.33-1.5t.39-1.31l5.4-16.43q.15-.44.59-.8.45-.36 1.1-.36h1.5q.66 0 1.08.32t.63.84l5.38 16.43q.39 1.18.72 2.72.24-1.5.55-2.72l4.67-16.43q.12-.48.58-.82.47-.34 1.11-.34m16.95 22.43v-3.28q-2.03.09-3.42.35t-2.22.66q-.84.39-1.2.93-.36.53-.36 1.16 0 1.23.73 1.76t1.91.53q1.45 0 2.5-.52t2.06-1.59m-9.92-10.24-.83-1.5q3.36-3.08 8.09-3.08 1.71 0 3.06.57 1.35.56 2.28 1.55.93 1 1.42 2.39.48 1.39.48 3.04v12.31h-2.13q-.66 0-1.02-.2t-.57-.81l-.42-1.4q-.74.66-1.45 1.17-.7.5-1.46.84t-1.62.52q-.87.18-1.91.18-1.24 0-2.28-.33-1.05-.33-1.81-1-.76-.66-1.18-1.65-.41-.99-.41-2.3 0-.74.24-1.47.25-.73.81-1.4.56-.66 1.45-1.25.9-.59 2.2-1.03 1.3-.43 3.03-.71t3.95-.33v-1.14q0-1.96-.83-2.9-.84-.94-2.42-.94-1.14 0-1.89.27-.75.26-1.32.59-.57.34-1.03.6-.47.27-1.04.27-.49 0-.84-.26-.34-.25-.55-.6m25.41 15.58q-2.55 0-3.91-1.43t-1.36-3.96v-10.89h-1.99q-.38 0-.65-.25-.26-.24-.26-.74v-1.86l3.13-.51.99-5.32q.09-.38.36-.59t.68-.21h2.44v6.14h5.2v3.34h-5.2v10.56q0 .92.44 1.43.45.51 1.23.51.44 0 .73-.1.29-.11.51-.22t.39-.22q.17-.1.34-.1.21 0 .35.1.13.11.28.31l1.41 2.28q-1.03.86-2.36 1.3-1.33.43-2.75.43m11.34-12.29h8.85q0-.91-.25-1.72-.26-.81-.77-1.41-.52-.61-1.3-.96-.79-.35-1.84-.35-2.03 0-3.2 1.15-1.17 1.16-1.49 3.29m11.97 2.83h-12.07q.12 1.5.54 2.6.41 1.09 1.1 1.8.68.71 1.62 1.06.94.36 2.08.36t1.97-.27 1.44-.59q.62-.32 1.09-.59.46-.26.9-.26.59 0 .87.43l1.35 1.71q-.78.92-1.75 1.53-.96.62-2.02.99-1.05.37-2.15.52-1.09.15-2.11.15-2.04 0-3.79-.67-1.74-.67-3.04-1.99-1.29-1.33-2.03-3.27-.74-1.95-.74-4.51 0-2 .65-3.76.64-1.75 1.85-3.06 1.21-1.3 2.94-2.06 1.74-.76 3.93-.76 1.84 0 3.4.59t2.68 1.72 1.75 2.77q.64 1.65.64 3.76 0 1.06-.23 1.43-.22.37-.87.37m8.76-9.16.28 2.21q.92-1.75 2.17-2.75t2.96-1q1.35 0 2.17.59l-.3 3.52q-.1.34-.28.48-.18.15-.48.15-.29 0-.85-.1-.56-.09-1.09-.09-.78 0-1.39.22-.61.23-1.09.66-.49.43-.86 1.04-.37.6-.69 1.38v12.01h-4.69v-19.49h2.75q.72 0 1.01.25.28.26.38.92"/></svg>